<?xml version="1.0" encoding="utf-8"?>
<!-- Generator: Adobe Illustrator 27.5.0, SVG Export Plug-In . SVG Version: 6.00 Build 0)  -->
<svg version="1.1" id="Ebene_1" xmlns="http://www.w3.org/2000/svg" xmlns:xlink="http://www.w3.org/1999/xlink" x="0px" y="0px"
	 viewBox="0 0 192.9 22.7" style="enable-background:new 0 0 192.9 22.7;" xml:space="preserve">
<style type="text/css">
	.st0{fill-rule:evenodd;clip-rule:evenodd;fill:#E3032E;}
	.st1{fill-rule:evenodd;clip-rule:evenodd;fill:#FABA20;}
	.st2{fill-rule:evenodd;clip-rule:evenodd;fill:#289B38;}
	.st3{fill:#4F5253;}
</style>
<g>
	<g>
		<path class="st0" d="M10.9,0c6,0,10.9,4.9,10.9,10.9s-4.9,10.9-10.9,10.9S0,16.9,0,10.9S4.9,0,10.9,0L10.9,0z"/>
		<path class="st1" d="M21.7,0c6,0,10.9,4.9,10.9,10.9s-4.9,10.9-10.9,10.9s-10.9-4.9-10.9-10.9C10.9,4.9,15.7,0,21.7,0L21.7,0z"/>
		<path class="st2" d="M32.6,0c6,0,10.9,4.9,10.9,10.9s-4.9,10.9-10.9,10.9s-10.9-4.9-10.9-10.9C21.7,4.9,26.6,0,32.6,0z"/>
		<g>
			<g>
				<path class="st3" d="M46.5,20.3V3h13v3.3h-8v3.5h7.6v3.4h-7.6v3.7h8.2v3.3L46.5,20.3L46.5,20.3z"/>
				<path class="st3" d="M61.4,20.3v-4L70,6.6h-8.4V3.1h13.9v4l-8.4,9.7h8.7v3.5H61.4z"/>
				<path class="st3" d="M77.5,20.3V3h8.8c2.8,0,5.8,0.9,5.8,4.3c0,2.3-1.3,3.6-3.5,4.1c2.2,0.4,3.9,1.7,3.9,4.1
					c0,4.2-3.5,4.8-7,4.8C85.5,20.3,77.5,20.3,77.5,20.3z M82.4,10.2h1.7c1.4,0,3-0.5,3-2.2c0-1.6-1.4-2.1-2.7-2.1h-2V10.2z
					 M82.4,17.4h1.8c1.5,0,3.2-0.5,3.2-2.3c0-2-1.7-2.3-3.3-2.3h-1.7V17.4z"/>
			</g>
		</g>
	</g>
	<g>
		<path class="st3" d="M96.2,10.7v-7h3.6v0.7H97v2.4h2.7v0.7H97v2.6h2.9v0.7L96.2,10.7L96.2,10.7z"/>
		<path class="st3" d="M101.2,10.7V3.1h0.8v7.6H101.2z"/>
		<path class="st3" d="M103.9,8.1c0,1,0.5,2,1.9,2c0.5,0,1.1-0.1,1.4-0.4v0.7c-0.5,0.2-1,0.3-1.5,0.3c-1.8,0-2.7-1.2-2.7-2.8
			c0-1.3,0.8-2.7,2.3-2.7c1.6,0,2.1,1.3,2.1,2.7V8h-3.5V8.1z M106.8,7.6c-0.1-0.7-0.3-1.6-1.3-1.6S104,6.9,104,7.6H106.8z"/>
		<path class="st3" d="M112.2,10.6c-0.5,0.2-0.9,0.2-1.4,0.2c-1.6,0-2.5-1.2-2.5-2.8c0-1.6,1-2.7,2.6-2.7c0.4,0,0.9,0.1,1.3,0.2
			l-0.1,0.7c-0.3-0.2-0.7-0.3-1.1-0.3c-1.3,0-1.9,0.9-1.9,2.1c0,1.1,0.6,2.1,1.8,2.1c0.4,0,0.8-0.1,1.2-0.2L112.2,10.6z"/>
		<path class="st3" d="M115.8,10.6c-0.3,0.1-0.6,0.2-0.9,0.2c-1.1,0-1.2-0.8-1.2-1.7v-3h-1V5.5h1V4.2l0.8-0.3v1.4h1.2v0.6h-1.2v3.3
			c0,0.5,0.1,0.9,0.7,0.9c0.2,0,0.4-0.1,0.6-0.1L115.8,10.6z"/>
		<path class="st3" d="M116.8,10.7v-4c0-0.4,0-0.8-0.1-1.2h0.7v1c0.2-0.5,0.7-1.1,1.4-1.1c0.2,0,0.3,0,0.4,0v0.8
			c-0.1,0-0.3-0.1-0.4-0.1c-1.1,0-1.3,1.2-1.3,2v2.6C117.5,10.7,116.8,10.7,116.8,10.7z"/>
		<path class="st3" d="M119.8,8c0-1.5,0.9-2.7,2.5-2.7c1.6,0,2.5,1.2,2.5,2.7s-0.8,2.8-2.5,2.8c-0.4,0-0.8-0.1-1.1-0.2
			C120.3,10.1,119.8,9.2,119.8,8z M122.3,10.1c1.1,0,1.6-1.1,1.6-2.1c0-1.1-0.5-2.1-1.6-2.1c-1.2,0-1.6,1.1-1.6,2.1
			c0,0.5,0.1,1,0.4,1.4C121.3,9.8,121.7,10.1,122.3,10.1z"/>
		<path class="st3" d="M125.9,10.7v-4c0-0.4,0-0.8-0.1-1.2h0.7v0.9c0.4-0.7,0.9-1,1.7-1c1.3,0,1.8,0.9,1.8,2.1v3.3h-0.8V7.7
			c0-0.8-0.2-1.6-1.2-1.6c-1.1,0-1.4,0.9-1.4,1.9v2.8h-0.7V10.7z"/>
		<path class="st3" d="M131.6,4.2V3.3h0.8v0.9H131.6z M131.6,10.7V5.4h0.8v5.3H131.6z"/>
		<path class="st3" d="M137.4,10.6c-0.5,0.2-0.9,0.2-1.4,0.2c-1.6,0-2.5-1.2-2.5-2.8c0-1.6,1-2.7,2.6-2.7c0.4,0,0.9,0.1,1.3,0.2
			l-0.1,0.7c-0.3-0.2-0.7-0.3-1.1-0.3c-1.3,0-1.9,0.9-1.9,2.1c0,1.1,0.6,2.1,1.8,2.1c0.4,0,0.8-0.1,1.2-0.2L137.4,10.6z"/>
		<path class="st3" d="M140.8,9.9c0.2,0.1,0.4,0.1,0.6,0.1c0.8,0,1-0.6,1-1.3V3.5h0.8v5.2c0,1.1-0.5,2-1.7,2c-0.3,0-0.6,0-0.8-0.1
			L140.8,9.9z"/>
		<path class="st3" d="M144.5,8c0-1.5,0.9-2.7,2.5-2.7s2.5,1.2,2.5,2.7s-0.8,2.8-2.5,2.8c-0.4,0-0.8-0.1-1.1-0.2
			C144.9,10.1,144.5,9.2,144.5,8z M146.9,10.1c1.1,0,1.6-1.1,1.6-2.1c0-1.1-0.5-2.1-1.6-2.1c-1.2,0-1.6,1.1-1.6,2.1
			c0,0.5,0.1,1,0.4,1.4C145.9,9.8,146.3,10.1,146.9,10.1z"/>
		<path class="st3" d="M151.3,8.5c0,0.8,0.2,1.6,1.2,1.6c1.1,0,1.4-0.9,1.4-1.9V5.4h0.8v4c0,0.4,0,0.8,0.1,1.2h-0.7V9.7
			c-0.4,0.7-0.9,1-1.7,1c-1.3,0-1.8-0.9-1.8-2.1V5.4h0.8v3.1H151.3z"/>
		<path class="st3" d="M156.2,10.7v-4c0-0.4,0-0.8-0.1-1.2h0.7v1c0.2-0.5,0.7-1.1,1.4-1.1c0.2,0,0.3,0,0.4,0v0.8
			c-0.1,0-0.3-0.1-0.4-0.1c-1.1,0-1.3,1.2-1.3,2v2.6C156.9,10.7,156.2,10.7,156.2,10.7z"/>
		<path class="st3" d="M159.7,10.7v-4c0-0.4,0-0.8-0.1-1.2h0.7v0.9c0.4-0.7,0.9-1,1.7-1c1.3,0,1.8,0.9,1.8,2.1v3.3H163V7.7
			c0-0.8-0.2-1.6-1.2-1.6c-1.1,0-1.4,0.9-1.4,1.9v2.8h-0.7V10.7z"/>
		<path class="st3" d="M168.3,10.7V9.9c-0.3,0.7-1,1-1.6,1c-0.9,0-1.7-0.5-1.7-1.6c0-1.3,1.2-1.8,2.7-1.8h0.6V7.2
			c0-0.8-0.3-1.3-1.2-1.3c-0.5,0-1,0.1-1.5,0.4l-0.1-0.7c0.5-0.2,1.1-0.4,1.6-0.4c1.3,0,1.9,0.6,1.9,2v2.3c0,0.4,0,0.7,0.1,1.1
			L168.3,10.7L168.3,10.7z M167.9,8c-1,0-2.1,0.1-2.1,1.2c0,0.7,0.5,1,1,1c1.1,0,1.5-0.8,1.5-1.8V8.1L167.9,8L167.9,8z"/>
		<path class="st3" d="M170.6,10.7V3.1h0.8v7.6H170.6z"/>
		<path class="st3" d="M172.6,9.8c0.4,0.2,0.8,0.3,1.3,0.3c0.6,0,1-0.3,1-0.9c0-1.3-2.3-0.9-2.3-2.5c0-1.1,0.9-1.5,1.7-1.5
			c0.4,0,0.8,0.1,1.2,0.2l-0.1,0.7c-0.3-0.2-0.7-0.3-1.1-0.3c-0.4,0-0.9,0.2-0.9,0.8c0,1.1,2.3,0.7,2.3,2.5c0,1-0.9,1.6-1.8,1.6
			c-0.5,0-1-0.1-1.4-0.2L172.6,9.8z"/>
		<path class="st3" d="M96.2,20.3v-7H97v6.3h2.8v0.7H96.2z"/>
		<path class="st3" d="M100.8,13.9V13h0.8v0.9H100.8z M100.8,20.3V15h0.8v5.3H100.8z"/>
		<path class="st3" d="M103.1,20.3v-7.6h0.8v3.2c0.3-0.6,0.9-1,1.6-1c1.6,0,2.1,1.3,2.1,2.7c0,1.3-0.6,2.8-2.1,2.8
			c-0.7,0-1.3-0.3-1.6-1v0.9H103.1z M105.3,19.8c1.2,0,1.5-1.1,1.5-2.1s-0.3-2.1-1.5-2.1c-1.1,0-1.5,1.1-1.5,2.1
			c0,0.5,0.1,1,0.3,1.4C104.4,19.5,104.8,19.8,105.3,19.8z"/>
		<path class="st3" d="M108.8,20.3v-4c0-0.4,0-0.8-0.1-1.2h0.7v1c0.2-0.5,0.7-1.1,1.4-1.1c0.2,0,0.3,0,0.4,0v0.8
			c-0.1,0-0.3-0.1-0.4-0.1c-1.1,0-1.3,1.2-1.3,2v2.6C109.5,20.3,108.8,20.3,108.8,20.3z"/>
		<path class="st3" d="M115.1,20.3v-0.8c-0.3,0.7-1,1-1.6,1c-0.9,0-1.7-0.5-1.7-1.6c0-1.3,1.2-1.8,2.7-1.8h0.6v-0.3
			c0-0.8-0.3-1.3-1.2-1.3c-0.5,0-1,0.1-1.5,0.4l-0.1-0.7c0.5-0.2,1.1-0.4,1.6-0.4c1.3,0,1.9,0.6,1.9,2v2.4c0,0.4,0,0.7,0.1,1.1
			H115.1z M114.7,17.7c-1,0-2.1,0.1-2.1,1.2c0,0.7,0.5,1,1,1c1.1,0,1.5-0.8,1.5-1.8v-0.3L114.7,17.7L114.7,17.7z"/>
		<path class="st3" d="M117.4,20.3v-4c0-0.4,0-0.8-0.1-1.2h0.7v1c0.2-0.5,0.7-1.1,1.4-1.1c0.2,0,0.3,0,0.4,0v0.8
			c-0.1,0-0.3-0.1-0.4-0.1c-1.1,0-1.3,1.2-1.3,2v2.6C118.1,20.3,117.4,20.3,117.4,20.3z"/>
		<path class="st3" d="M120.4,22c0.2,0.1,0.3,0.1,0.5,0.1c0.6,0,0.9-0.8,1-1.2l0.1-0.3l-1.8-5.4h0.8l1.4,4.5l1.4-4.5h0.8l-2.1,6
			c-0.3,0.8-0.7,1.5-1.5,1.5c-0.3,0-0.4,0-0.6-0.1V22z"/>
	</g>
</g>
</svg>
